<svg width="396" height="387" viewBox="0 0 396 387" fill="none" xmlns="http://www.w3.org/2000/svg">
<path d="M139.754 55.8408C130.996 55.8408 122.219 55.7411 113.475 56.3088C100.39 57.1585 88.2512 60.8551 75.6624 64.199C73.0022 64.9057 45.0557 71.5774 45.2718 72.6576C45.486 73.7288 47.0912 75.7512 47.4115 76.2015C52.1142 82.8126 57.2022 89.1699 62.5232 95.2918C71.0077 105.053 79.8866 114.606 89.4034 123.376C95.2096 128.726 102.161 135.278 109.329 138.888C114.911 141.7 116.95 135.526 118.958 131.567C122.842 123.91 125.934 115.99 128.854 107.929C131.205 101.441 133.81 95.1749 136.745 88.9395" stroke="#2C2C2C" stroke-width="20" stroke-linecap="round"/>
<path d="M100.637 202.077C99.3133 203.16 96.8247 203.011 95.2208 203.28C92.7597 203.694 91.2128 204.646 89.136 206.089C79.8987 212.508 70.3315 218.792 61.6874 226.015C42.9405 241.68 38.323 265.681 42.0957 289.137C43.8902 300.294 46.79 309.663 56.7393 315.85C63.9714 320.347 71.536 323.136 80.0087 324.241C92.4407 325.863 106.587 326.69 119.092 325.044C131.501 323.409 143.536 312.093 147.376 300.571C151.917 286.948 150.929 272.523 146.373 259.114C144.399 253.303 141.074 246.742 134.739 244.938C124.264 241.955 111.641 243.228 101.841 247.646C95.182 250.648 85.424 253.978 82.5831 261.454C80.3481 267.335 79.3841 274.184 80.6105 280.411C82.2084 288.523 85.0411 295.355 93.8834 295.355C97.6023 295.355 102.234 295.363 102.476 291.009C102.622 288.37 103.646 285.943 103.646 283.319" stroke="#2C2C2C" stroke-width="20" stroke-linecap="round"/>
<path d="M224.005 296.559C217.344 278.999 211.64 261.218 205.617 243.4C201.984 232.655 199.28 221.598 195.787 210.803C194.198 205.889 194.042 201.07 192.678 196.126C190.798 189.312 189.051 181.767 186.359 175.23C184.478 170.661 185.641 166.65 187.295 162.225C189.937 155.158 194.2 151.985 200.134 147.581C209.483 140.641 213.987 128.631 221.397 119.832C228.812 111.026 235.318 102.045 241.791 92.5502C244.321 88.8396 247.941 86.0661 251.086 82.9215C253.501 80.5063 256.329 75.4872 259.31 73.8612C261.887 72.4555 264.112 71.4506 267.133 71.4874C270.393 71.5272 273.199 72.5298 276.227 73.6271C282.023 75.7271 288.005 77.3165 293.88 79.177C300.851 81.3845 307.074 82.0979 314.14 83.3562C319.595 84.3275 324.732 87.5977 330.188 88.204C337.452 89.011 347.543 84.9427 353.959 89.2738C355.373 90.2285 357.38 91.0737 357.336 93.0183C357.244 97.0509 355.201 100.507 353.023 103.75C343.632 117.732 335.933 134.104 324.237 146.344C319.398 151.408 316.39 157.005 312.669 162.826C308.279 169.695 303.252 176.222 298.895 183.154C296.062 187.661 294.454 192.333 292.208 197.095C290.516 200.683 287.565 204.786 288.664 208.964C290.942 217.618 295.166 226.256 299.563 233.972C303.677 241.191 305.029 249.461 307.922 257.175C311.248 266.044 315.769 274.444 319.556 283.119C323.891 293.047 326.893 303.361 330.522 313.543C330.746 314.17 332.363 317.174 330.924 317.488C327.572 318.219 323.25 316.637 319.857 316.485C295.934 315.41 271.995 318.223 248.077 318.223" stroke="#2C2C2C" stroke-width="20" stroke-linecap="round"/>
<path d="M273.954 100.374C270.124 99.2081 265.131 101.625 261.851 103.383C256.99 105.987 254.598 111.173 256.569 116.522C260.278 126.59 255.062 132.778 245.201 136.682C240.963 138.36 234.712 138.363 231.159 141.429C228.15 144.027 227.915 149.149 228.919 152.663C229.312 154.035 232.102 157.005 231.928 158.28C231.298 162.904 222.52 166.801 219.19 168.978" stroke="#2C2C2C" stroke-width="10" stroke-linecap="round"/>
<path d="M290.202 106.392C284.612 106.702 276.597 111.994 274.422 116.89C272.742 120.669 273.25 125.328 273.987 129.26C275.001 134.666 273.801 137.49 269.206 140.961C266.573 142.951 263.149 144.833 260.246 146.377C258.124 147.507 254.55 148.607 252.924 150.623C251.503 152.386 252.245 156.651 252.423 158.681C252.675 161.557 254.498 164.657 253.994 167.541C253.225 171.946 248.336 174.425 245.068 176.802" stroke="#2C2C2C" stroke-width="10" stroke-linecap="round"/>
<path d="M308.328 113.612C300.107 111.574 295.821 117.991 294.634 125.516C293.84 130.548 293.942 135.336 293.574 140.316C293.15 146.067 284.779 148.4 281.763 152.774C276.155 160.91 284.162 171.006 273.255 176.398C270.96 177.533 266.963 177.652 266.089 180.57C265.447 182.715 264.999 184.587 264 186.633" stroke="#2C2C2C" stroke-width="10" stroke-linecap="round"/>
<path d="M216.182 196.059C217.06 200.891 229.186 193.13 232.296 194.655C236.405 196.669 232.356 205.971 239.418 203.147C240.721 202.625 243.74 199.962 245.202 200.405C246.984 200.945 248.192 204.65 249.08 206.022C253.852 213.397 258.618 212.4 264.927 207.493" stroke="#2C2C2C" stroke-width="10" stroke-linecap="round"/>
<path d="M221.598 218.325C225.625 223.759 229.38 228.31 236.709 226.75C241.456 225.741 238.682 230.832 242.192 231.565C247.845 232.745 252.206 227.228 257.07 231.732C259.809 234.268 260.471 237.223 264.325 235.777" stroke="#2C2C2C" stroke-width="10" stroke-linecap="round"/>
<path d="M232.43 250.822C236.058 250.822 239.838 250.525 243.463 250.822C248.489 251.234 248.368 264.246 252.557 262.791C255.221 261.866 256.536 258.605 259.109 257.709C260.452 257.242 263.168 259.91 264.258 260.518C266.41 261.717 269.768 261.053 272.148 261.053" stroke="#2C2C2C" stroke-width="10" stroke-linecap="round"/>
<path d="M246.873 284.523C249.312 283.525 252.088 283.121 254.696 282.851C259.146 282.391 260.041 286.365 264.325 286.83C270.004 287.445 275.477 283.745 281.175 284.59C282.301 284.756 283.261 286.839 284.184 287.532" stroke="#2C2C2C" stroke-width="10" stroke-linecap="round"/>
<path d="M83.6514 100.691C83.6905 98.8495 85.0522 97.3747 86.2745 96.1038C87.5551 94.7722 89.2203 93.5575 90.9852 92.9725C93.1895 92.2418 95.3132 91.3209 97.4675 90.4592C98.8159 89.9198 100.2 89.7391 101.629 89.5391C103.153 89.3257 104.669 89.0254 106.202 88.8798C109.971 88.5219 113.708 88.9441 117.313 89.9923C118.165 90.2402 118.952 90.6044 119.661 91.1459C120.236 91.5847 120.485 92.142 120.952 92.6566C121.765 93.5512 123.059 93.8419 123.822 94.7579" stroke="#2C2C2C" stroke-width="5" stroke-linecap="round"/>
<path d="M82.5391 105.635C83.7663 107.061 85.2326 108.172 87.1124 108.574C88.4379 108.858 90.0298 108.9 91.3492 108.952C94.6468 109.08 97.9587 109.12 101.258 109.041C105.564 108.937 109.534 107.904 113.385 105.978C115.619 104.861 116.872 102.394 118.357 100.499C119.445 99.1082 120.42 97.7446 121.35 96.2411" stroke="#2C2C2C" stroke-width="5" stroke-linecap="round"/>
<path d="M102.315 91.5442C101.967 91.7432 101.491 91.6579 101.107 91.6747C100.393 91.7057 99.663 91.9502 98.9782 92.1347C96.2121 92.8801 94.2371 94.6205 94.2812 97.6694C94.3019 99.0959 94.957 100.319 95.6821 101.508C96.2125 102.378 96.7125 103.332 97.6597 103.808C98.857 104.411 100.239 104.608 101.546 104.818C102.426 104.959 102.859 105.058 103.325 104.2C104.588 101.873 105.141 99.5504 105.454 96.9415C105.625 95.5121 105.719 93.8281 104.719 92.6704C104.293 92.1778 102.869 91.8863 102.219 91.8051C101.73 91.7439 100.591 92.0142 100.461 92.533" stroke="#2C2C2C" stroke-width="5" stroke-linecap="round"/>
</svg>
